<svg width="44" height="44" viewBox="0 0 44 44" fill="none" xmlns="http://www.w3.org/2000/svg">
<path d="M34.833 20.1668H13.0897L19.7447 12.1735C20.0559 11.7991 20.2056 11.3164 20.1609 10.8317C20.1162 10.3469 19.8807 9.8997 19.5063 9.58851C19.1319 9.27733 18.6493 9.12761 18.1645 9.17231C17.6797 9.217 17.2325 9.45245 16.9213 9.82685L7.75467 20.8268C7.693 20.9143 7.63785 21.0063 7.58967 21.1018C7.58967 21.1935 7.58967 21.2485 7.46134 21.3402C7.37824 21.5504 7.33473 21.7741 7.33301 22.0002C7.33473 22.2262 7.37824 22.45 7.46134 22.6602C7.46134 22.7518 7.46134 22.8068 7.58967 22.8985C7.63785 22.9941 7.693 23.086 7.75467 23.1735L16.9213 34.1735C17.0937 34.3805 17.3096 34.5469 17.5536 34.661C17.7975 34.775 18.0637 34.8339 18.333 34.8335C18.7614 34.8343 19.1765 34.6852 19.5063 34.4118C19.692 34.2579 19.8454 34.0689 19.9579 33.8556C20.0704 33.6423 20.1397 33.4089 20.1618 33.1688C20.184 32.9287 20.1585 32.6865 20.0869 32.4563C20.0153 32.226 19.899 32.0121 19.7447 31.8268L13.0897 23.8335H34.833C35.3192 23.8335 35.7856 23.6404 36.1294 23.2965C36.4732 22.9527 36.6663 22.4864 36.6663 22.0002C36.6663 21.5139 36.4732 21.0476 36.1294 20.7038C35.7856 20.36 35.3192 20.1668 34.833 20.1668Z" fill="#59194F"/>
</svg>
