<svg width="49" height="49" viewBox="0 0 49 49" fill="none" xmlns="http://www.w3.org/2000/svg">
<path d="M32.7971 16.9775C32.7971 16.767 32.6248 16.5947 32.4143 16.5947L29.2561 16.6091L24.4996 22.2795L19.7479 16.6139L16.585 16.5995C16.3744 16.5995 16.2021 16.767 16.2021 16.9823C16.2021 17.0732 16.2356 17.1594 16.2931 17.2312L22.5186 24.6481L16.2931 32.0604C16.2352 32.1305 16.2032 32.2183 16.2021 32.3092C16.2021 32.5197 16.3744 32.692 16.585 32.692L19.7479 32.6776L24.4996 27.0072L29.2513 32.6729L32.4095 32.6872C32.62 32.6872 32.7923 32.5197 32.7923 32.3044C32.7923 32.2135 32.7588 32.1273 32.7014 32.0556L26.4854 24.6434L32.7109 17.2264C32.7684 17.1594 32.7971 17.0685 32.7971 16.9775Z" fill="black"/>
<path d="M24.5 3.11035C12.6615 3.11035 3.0625 12.7094 3.0625 24.5479C3.0625 36.3863 12.6615 45.9854 24.5 45.9854C36.3385 45.9854 45.9375 36.3863 45.9375 24.5479C45.9375 12.7094 36.3385 3.11035 24.5 3.11035ZM24.5 42.3486C14.6713 42.3486 6.69922 34.3766 6.69922 24.5479C6.69922 14.7191 14.6713 6.74707 24.5 6.74707C34.3287 6.74707 42.3008 14.7191 42.3008 24.5479C42.3008 34.3766 34.3287 42.3486 24.5 42.3486Z" fill="black"/>
</svg>
