<svg width="36" height="36" viewBox="0 0 36 36" fill="none" xmlns="http://www.w3.org/2000/svg">
<path d="M31.5 28.5H13.5M4.5 7.5H10.5H4.5ZM31.5 7.5H16.5H31.5ZM4.5 18H22.5H4.5ZM31.5 18H28.5H31.5ZM4.5 28.5H7.5H4.5Z" stroke="#59194F" stroke-width="2" stroke-linecap="round"/>
<path d="M13.5 10.5C15.1569 10.5 16.5 9.15685 16.5 7.5C16.5 5.84315 15.1569 4.5 13.5 4.5C11.8431 4.5 10.5 5.84315 10.5 7.5C10.5 9.15685 11.8431 10.5 13.5 10.5Z" stroke="#59194F" stroke-width="2" stroke-linecap="round"/>
<path d="M25.5 21C27.1569 21 28.5 19.6569 28.5 18C28.5 16.3431 27.1569 15 25.5 15C23.8431 15 22.5 16.3431 22.5 18C22.5 19.6569 23.8431 21 25.5 21Z" stroke="#59194F" stroke-width="2" stroke-linecap="round"/>
<path d="M10.5 31.5C12.1569 31.5 13.5 30.1569 13.5 28.5C13.5 26.8431 12.1569 25.5 10.5 25.5C8.84315 25.5 7.5 26.8431 7.5 28.5C7.5 30.1569 8.84315 31.5 10.5 31.5Z" stroke="#59194F" stroke-width="2" stroke-linecap="round"/>
</svg>
